<?xml version="1.0" encoding="utf-8"?>
<!-- Generator: Adobe Illustrator 15.1.0, SVG Export Plug-In . SVG Version: 6.00 Build 0)  -->
<!DOCTYPE svg PUBLIC "-//W3C//DTD SVG 1.1//EN" "http://www.w3.org/Graphics/SVG/1.1/DTD/svg11.dtd">
<svg version="1.1" id="Layer_1" xmlns="http://www.w3.org/2000/svg" xmlns:xlink="http://www.w3.org/1999/xlink" x="0px" y="0px"
	 width="264.333px" height="126.333px" viewBox="0 0 264.333 126.333" enable-background="new 0 0 264.333 126.333"
	 xml:space="preserve">
<rect x="-2.417" y="-276.168" fill="#FFFFFF" width="264.333" height="124.334"/>
<line fill="#FFFFFF" stroke="#000000" stroke-width="0.7874" stroke-miterlimit="10" x1="399" y1="-151.219" x2="399" y2="-87.671"/>
<path fill="#FDCCA0" d="M177.333-224.334v68.333l87,0.334v-2.334c0,0-19.333,2.667-42-12.333s-34-37-36.333-40.667
	c-0.799-1.255-4.412-6.927-9.032-13.977"/>
<line fill="none" stroke="#000000" stroke-width="0.282" stroke-miterlimit="10" x1="80.333" y1="-306.667" x2="80.333" y2="-305"/>
<polyline fill="none" stroke="#000000" stroke-width="0.282" stroke-miterlimit="10" points="115,-306.667 115,-305.834 115,-305 
	"/>
<line fill="none" stroke="#000000" stroke-width="0.282" stroke-miterlimit="10" x1="80.333" y1="-305.834" x2="115" y2="-305.834"/>
<path d="M51.557-164.798l-1.579,6.734l-4.478-0.005c0,0,3.383-5.347,4.667-10.696c1.284-5.352,3.228-10.695,3.228-10.695l2.93-2.468
	c0,0,1.464,7.997,2.342,13.344c0.878,5.349,3.083,10.516,3.083,10.516l-4.589-0.005l-1.076-6.73L51.557-164.798z M55.851-166.96
	l-1.039-6.157c-0.237-1.395-0.384-2.664-0.536-3.9h-0.039c-0.23,1.237-0.465,2.568-0.777,3.87l-1.481,6.191L55.851-166.96z"/>
<path d="M60.4-186.106c0.734-0.384,4.412-6.455,5.554-6.456c1.657,0,4.993,2.283,5.733,3.729c0.632,1.105,1.061,6.409,0.979,8.666
	c-0.102,2.806-3.11,5.436-4.478,6.5l-0.005,0.128c1.181,0.637,4.701,3.117,4.494,7.372c-0.121,2.469-0.118,4.471-0.843,5.834
	c-0.954,1.829-3.094,2.36-5.158,2.362c-1.126,0-7.472,0.074-8.009-0.097c0,0,2.358-6.563,2.643-13.6
	C61.594-178.707,60.4-186.106,60.4-186.106z M64.464-174.729l1.498-0.002c1.723,0,2.828-2.082,2.926-4.846
	c0.117-3.316-0.963-4.676-2.636-4.676c-0.761,0-1.202,0.13-1.472,0.258L64.464-174.729z M63.855-161.031
	c0.333,0.127,0.782,0.17,1.364,0.169c1.691-0.002,3.32-1.407,3.521-5.576c0.187-3.869-1.23-5.528-3.027-5.528l-1.362,0.002
	L63.855-161.031z"/>
<path d="M86.625-182.876c-0.287,8.149-1.213,14.271-2.5,18.5c-1.287,4.228-3.787,6.495-5.386,6.495c-1.665,0-4.461-2.112-5.239-6.37
	c-0.778-4.256-1.821-10.477-1.583-17.677c0.249-7.554,0.129-18.032,2.152-22.021c2.182-4.302,4.432-8.47,5.169-8.47
	c1.736,0,5.413,7.912,6.42,12.168C86.665-195.993,86.875-189.97,86.625-182.876z M75.92-182.252
	c-0.383,10.24,0.613,19.353,3.186,19.354c1.287,0,2.414-2.243,3.286-5.836s1.467-8.536,1.633-13.934
	c0.293-9.527-0.982-19.399-3.704-19.402c-1.36-0.002-2.368,2.358-3.07,6.015C76.55-192.396,76.115-187.441,75.92-182.252z"/>
<path d="M82-158.046c11.75-6.205-0.504-59.833-0.504-59.833l6.537-10.016c0,0,5.029,44.886,5.15,48.392l0.067,0.001
	c0.504-3.461,3.131-60.832,3.131-60.832l5.023-7.192c0,0-5.27,77.307-5.8,80.111c-1.061,5.607-1.774,9.345-1.774,9.345L82-158.046z"
	/>
<path d="M115.859-200.001l-4.755-0.014c0,0-7.749,28.82-1.43,31.683l5.327,0.013l2.5,10.318l-23.67-0.067
	c8.295-6.683,6.441-87.507,6.441-87.507l11.004-12.522v19.597l-4.025,4c0,0-4.271,26.126,3.74,25.063s4.761,0.012,4.761,0.012
	L115.859-200.001z"/>
<path d="M129.139-246.865l-17.327-0.007l-0.537-11.226c0,0,2.646,0.001,6.615,0.001c3.97,0,9.264,0,14.563-0.004
	c5.299-0.004,10.596-0.009,14.566-0.013c3.97-0.004,11.366-2.221,11.366-2.221l-4.412,13.447l-17.406,0.02
	c0,0,0.11,2.53,0.301,6.746c0.191,4.215,0.454,10.117,0.718,16.86c0.132,3.372,0.245,6.954,0.33,10.642
	c0.085,3.687,0.136,7.479,0.144,11.271s-0.025,7.582-0.097,11.268c-0.071,3.685-0.172,7.264-0.297,10.634
	c-0.25,6.736-0.508,12.63-0.7,16.841c-0.192,4.209-0.306,6.735-0.306,6.735l-7.386-0.008c0,0,0.124-2.525,0.334-6.736
	c0.21-4.21,0.49-10.105,0.759-16.843c0.134-3.369,0.243-6.948,0.318-10.633c0.076-3.685,0.11-7.476,0.099-11.266
	c-0.011-3.792-0.068-7.583-0.163-11.269c-0.094-3.687-0.218-7.268-0.363-10.639c-0.29-6.742-0.578-12.642-0.788-16.857
	C129.26-244.335,129.139-246.865,129.139-246.865z"/>
<path d="M151.812-239.487c0,0,0.313,8.754,0.56,17.506c0.247,8.751,0.353,17.501,0.353,17.501l12.555-0.02
	c0,0-0.072-8.753-0.265-17.504c-0.193-8.752-0.452-17.503-0.452-17.503l3.441-0.004c0,0,0.066,2.324,0.172,6.197
	c0.106,3.872,0.24,9.294,0.348,15.492c0.107,6.197,0.152,13.169,0.107,20.14c-0.045,6.971-0.171,13.939-0.326,20.133
	c-0.154,6.192-0.307,11.609-0.415,15.479c-0.108,3.869-0.17,6.189-0.17,6.189l-3.436,0.003c0,0,0.284-9.792,0.545-19.589
	c0.261-9.796,0.414-19.596,0.414-19.596l-12.543,0.017c0,0-0.169,9.799-0.481,19.593c-0.313,9.795-0.666,19.586-0.666,19.586h-3.433
	c0,0,0.087-2.32,0.237-6.188c0.15-3.868,0.354-9.284,0.554-15.475c0.2-6.189,0.354-13.156,0.393-20.124s-0.045-13.939-0.205-20.136
	c-0.16-6.196-0.347-11.62-0.493-15.493c-0.146-3.874-0.235-6.199-0.235-6.199L151.812-239.487z"/>
<path d="M177.561-188.989l-4.707,0.007c0,0-0.117,6.365-0.271,12.729c-0.153,6.361-0.323,12.724-0.323,12.724l5.307-0.005
	l-0.184,7.646l-6.925,0.006c0,0,0.208-7.844,0.482-18.302c0.137-5.229,0.262-11.115,0.342-17.001s0.103-11.773,0.056-17.006
	c-0.094-10.467-0.255-18.317-0.255-18.317l6.623-0.008l0.138,7.65l-5.011,0.007c0,0,0.08,5.581,0.108,11.162
	c0.028,5.582,0.002,11.162,0.002,11.162l4.703-0.007L177.561-188.989z"/>
<path d="M194.034-175.705c0.016-6.291,0.014-13.921,0.069-19.479l-0.037-0.001c-0.485,5.226-1.049,10.913-1.766,17.137
	c0,0-0.641,5.472-1.289,10.941c-0.648,5.471-1.292,10.941-1.292,10.941h-1.205c0,0-0.398-5.369-0.786-10.736
	c-0.388-5.369-0.777-10.737-0.777-10.737c-0.462-6.425-0.846-12.184-1.13-17.537h-0.037c-0.098,5.625-0.305,13.12-0.546,19.946
	l-0.742,19.336l-1.514,0.002c0,0,0.113-2.817,0.287-7.046c0.174-4.228,0.407-9.866,0.625-15.504s0.41-11.277,0.53-15.507
	c0.121-4.23,0.187-7.05,0.187-7.05l2.001-0.002c0,0,0.486,5.455,0.938,10.91c0.452,5.456,0.877,10.91,0.877,10.91
	c0.4,5.553,0.698,10.506,0.93,15.188h0.037c0.419-4.548,0.953-9.501,1.603-15.19c0,0,0.633-5.456,1.238-10.912
	c0.605-5.455,1.178-10.912,1.178-10.912h2.004c0,0,0.034,2.818,0.068,7.049c0.034,4.229,0.055,9.868,0.058,15.508
	c0.002,5.638-0.003,11.276-0.005,15.505s0.001,7.047,0.001,7.047l-1.571,0.001L194.034-175.705z"/>
<path d="M204.589-172.045l-4.749,0.001l-0.201,12.416l5.334-0.001l-0.047,3.729l-6.951,0.002c0,0,0.136-8.608,0.278-17.22
	c0.142-8.608,0.252-17.22,0.252-17.22l6.609-0.003l-0.04,3.73l-5.021,0.002l-0.156,10.883l4.743-0.001L204.589-172.045z"/>
<path d="M209.091-163.904l-1.378,8.005h-1.648c0,0,1.132-6.361,2.267-12.724s2.262-12.725,2.262-12.725l1.892,0.001
	c0,0,0.971,6.362,1.948,12.725s1.972,12.723,1.972,12.723l-1.707,0.001l-1.238-8.006H209.091z M213.179-166.47l-1.132-7.326
	c-0.253-1.66-0.416-3.17-0.58-4.643h-0.037c-0.2,1.472-0.402,3.057-0.677,4.604l-1.3,7.364H213.179z"/>
<path d="M218.228-155.899l0.115-12.427h1.757l3.887,6.289c0.889,1.456,1.616,2.766,2.179,4.036l0.056-0.019
	c-0.138-1.657-0.165-3.169-0.151-5.105l0.04-5.2l1.504,0.001l-0.079,12.426h-1.621l-3.891-6.306
	c-0.85-1.384-1.662-2.803-2.254-4.148l-0.055,0.019c0.077,1.566,0.081,3.061,0.063,5.125l-0.042,5.311L218.228-155.899z"/>
<g>
	<g>
		<g>
			<g>
				
					<line fill="none" stroke="#F37B7F" stroke-width="0.2115" stroke-miterlimit="10" x1="264.303" y1="-157.367" x2="264.156" y2="-158.609"/>
				<polyline fill="none" stroke="#F37B7F" stroke-width="0.2115" stroke-miterlimit="10" points="238.793,-161.291 
					239.007,-161.879 239.22,-162.467 				"/>
				<path fill="none" stroke="#F37B7F" stroke-width="0.2115" stroke-miterlimit="10" d="M264.229-157.988
					c-4.271,0.398-8.582,0.055-12.807-0.621c-4.229-0.697-8.388-1.807-12.416-3.27"/>
			</g>
			<g>
				
					<line fill="none" stroke="#F37B7F" stroke-width="0.2115" stroke-miterlimit="10" x1="238.595" y1="-161.363" x2="239.025" y2="-162.538"/>
				<polyline fill="none" stroke="#F37B7F" stroke-width="0.2115" stroke-miterlimit="10" points="216.117,-174.034 216.5,-174.527 
					216.884,-175.021 				"/>
				<path fill="none" stroke="#F37B7F" stroke-width="0.2115" stroke-miterlimit="10" d="M238.81-161.951
					c-8.06-2.939-15.551-7.313-22.31-12.576"/>
			</g>
			<g>
				
					<line fill="none" stroke="#F37B7F" stroke-width="0.2115" stroke-miterlimit="10" x1="215.95" y1="-174.162" x2="216.719" y2="-175.147"/>
				<polyline fill="none" stroke="#F37B7F" stroke-width="0.2115" stroke-miterlimit="10" points="197.704,-192.406 
					198.193,-192.795 198.682,-193.185 				"/>
				<path fill="none" stroke="#F37B7F" stroke-width="0.2115" stroke-miterlimit="10" d="M216.334-174.655
					c-6.757-5.278-12.806-11.435-18.141-18.14"/>
			</g>
			<g>
				
					<line fill="none" stroke="#F37B7F" stroke-width="0.2115" stroke-miterlimit="10" x1="197.573" y1="-192.571" x2="198.553" y2="-193.348"/>
				<polyline fill="none" stroke="#F37B7F" stroke-width="0.2115" stroke-miterlimit="10" points="183.324,-214.026 
					183.851,-214.364 184.376,-214.702 				"/>
				<path fill="none" stroke="#F37B7F" stroke-width="0.2115" stroke-miterlimit="10" d="M198.063-192.96
					c-2.664-3.357-5.148-6.856-7.462-10.463c-2.333-3.597-4.364-7.378-6.75-10.941"/>
			</g>
			<g>
				
					<line fill="none" stroke="#F37B7F" stroke-width="0.2115" stroke-miterlimit="10" x1="183.211" y1="-214.203" x2="184.264" y2="-214.878"/>
				<polyline fill="none" stroke="#F37B7F" stroke-width="0.2115" stroke-miterlimit="10" points="169.106,-235.686 
					169.625,-236.035 170.143,-236.385 				"/>
				<path fill="none" stroke="#F37B7F" stroke-width="0.2115" stroke-miterlimit="10" d="M183.737-214.54
					c-4.633-7.212-9.322-14.387-14.113-21.495"/>
			</g>
			<g>
				
					<line fill="none" stroke="#F37B7F" stroke-width="0.2115" stroke-miterlimit="10" x1="168.989" y1="-235.859" x2="170.025" y2="-236.559"/>
				<polyline fill="none" stroke="#F37B7F" stroke-width="0.2115" stroke-miterlimit="10" points="153.942,-256.6 154.413,-257.012 
					154.883,-257.424 				"/>
				<path fill="none" stroke="#F37B7F" stroke-width="0.2115" stroke-miterlimit="10" d="M169.507-236.208
					c-2.398-3.552-4.822-7.087-7.304-10.581c-2.496-3.482-4.996-6.971-7.791-10.222"/>
			</g>
			<g>
				
					<line fill="none" stroke="#F37B7F" stroke-width="0.2115" stroke-miterlimit="10" x1="153.807" y1="-256.754" x2="154.742" y2="-257.583"/>
				<polyline fill="none" stroke="#F37B7F" stroke-width="0.2115" stroke-miterlimit="10" points="132.081,-267.705 
					132.104,-268.33 132.128,-268.954 				"/>
				<path fill="none" stroke="#F37B7F" stroke-width="0.2115" stroke-miterlimit="10" d="M154.274-257.169
					c-0.715-0.793-1.441-1.597-2.32-2.212c-0.738-0.777-1.495-1.536-2.283-2.262c-1.573-1.452-3.277-2.779-5.161-3.805
					c-3.775-2.099-8.148-2.73-12.406-2.881"/>
			</g>
			<g>
				
					<line fill="none" stroke="#F37B7F" stroke-width="0.2115" stroke-miterlimit="10" x1="132.001" y1="-268.959" x2="132.001" y2="-267.709"/>
				<polyline fill="none" stroke="#F37B7F" stroke-width="0.2115" stroke-miterlimit="10" points="132.332,-268.959 
					132.332,-268.334 132.332,-267.709 				"/>
				
					<line fill="none" stroke="#F37B7F" stroke-width="0.2115" stroke-miterlimit="10" x1="132.001" y1="-268.334" x2="132.332" y2="-268.334"/>
			</g>
			<g>
				
					<line fill="none" stroke="#F37B7F" stroke-width="0.2115" stroke-miterlimit="10" x1="132.252" y1="-267.705" x2="132.206" y2="-268.954"/>
				<polyline fill="none" stroke="#F37B7F" stroke-width="0.2115" stroke-miterlimit="10" points="110.527,-256.754 
					110.059,-257.169 109.591,-257.583 				"/>
				<path fill="none" stroke="#F37B7F" stroke-width="0.2115" stroke-miterlimit="10" d="M132.229-268.33
					c-4.258,0.151-8.631,0.782-12.406,2.881c-1.884,1.026-3.588,2.353-5.161,3.805c-0.788,0.727-1.545,1.485-2.283,2.262
					c-0.878,0.615-1.604,1.419-2.32,2.212"/>
			</g>
			<g>
				
					<line fill="none" stroke="#F37B7F" stroke-width="0.2115" stroke-miterlimit="10" x1="110.391" y1="-256.6" x2="109.451" y2="-257.424"/>
				<polyline fill="none" stroke="#F37B7F" stroke-width="0.2115" stroke-miterlimit="10" points="95.344,-235.859 94.826,-236.208 
					94.308,-236.559 				"/>
				<path fill="none" stroke="#F37B7F" stroke-width="0.2115" stroke-miterlimit="10" d="M109.921-257.012
					c-2.795,3.251-5.295,6.74-7.791,10.222c-2.482,3.494-4.906,7.029-7.304,10.581"/>
			</g>
			<g>
				
					<line fill="none" stroke="#F37B7F" stroke-width="0.2115" stroke-miterlimit="10" x1="95.227" y1="-235.686" x2="94.191" y2="-236.385"/>
				<polyline fill="none" stroke="#F37B7F" stroke-width="0.2115" stroke-miterlimit="10" points="81.122,-214.203 80.596,-214.54 
					80.07,-214.878 				"/>
				<path fill="none" stroke="#F37B7F" stroke-width="0.2115" stroke-miterlimit="10" d="M94.709-236.035
					c-4.791,7.108-9.48,14.283-14.113,21.495"/>
			</g>
			<g>
				
					<line fill="none" stroke="#F37B7F" stroke-width="0.2115" stroke-miterlimit="10" x1="81.009" y1="-214.026" x2="79.957" y2="-214.702"/>
				<polyline fill="none" stroke="#F37B7F" stroke-width="0.2115" stroke-miterlimit="10" points="66.76,-192.571 66.27,-192.96 
					65.78,-193.348 				"/>
				<path fill="none" stroke="#F37B7F" stroke-width="0.2115" stroke-miterlimit="10" d="M80.483-214.364
					c-2.386,3.563-4.418,7.344-6.75,10.941c-2.314,3.606-4.799,7.105-7.462,10.463"/>
			</g>
			<g>
				
					<line fill="none" stroke="#F37B7F" stroke-width="0.2115" stroke-miterlimit="10" x1="66.629" y1="-192.406" x2="65.651" y2="-193.185"/>
				<polyline fill="none" stroke="#F37B7F" stroke-width="0.2115" stroke-miterlimit="10" points="48.383,-174.162 47.999,-174.655 
					47.614,-175.147 				"/>
				<path fill="none" stroke="#F37B7F" stroke-width="0.2115" stroke-miterlimit="10" d="M66.14-192.795
					c-5.335,6.705-11.384,12.861-18.141,18.14"/>
			</g>
			<g>
				
					<line fill="none" stroke="#F37B7F" stroke-width="0.2115" stroke-miterlimit="10" x1="48.217" y1="-174.034" x2="47.449" y2="-175.021"/>
				<polyline fill="none" stroke="#F37B7F" stroke-width="0.2115" stroke-miterlimit="10" points="25.738,-161.363 25.523,-161.951 
					25.309,-162.538 				"/>
				<path fill="none" stroke="#F37B7F" stroke-width="0.2115" stroke-miterlimit="10" d="M47.833-174.527
					c-6.758,5.263-14.25,9.637-22.31,12.576"/>
			</g>
			<g>
				
					<line fill="none" stroke="#F37B7F" stroke-width="0.2115" stroke-miterlimit="10" x1="25.54" y1="-161.291" x2="25.113" y2="-162.467"/>
				<polyline fill="none" stroke="#F37B7F" stroke-width="0.2115" stroke-miterlimit="10" points="0.031,-157.367 0.104,-157.988 
					0.177,-158.609 				"/>
				<path fill="none" stroke="#F37B7F" stroke-width="0.2115" stroke-miterlimit="10" d="M25.327-161.879
					c-4.027,1.463-8.187,2.572-12.416,3.27c-4.226,0.676-8.536,1.02-12.807,0.621"/>
			</g>
		</g>
	</g>
</g>
<path fill="#FFFFFF" d="M256.365-158.001H7.968c-4.984,0.406-7.968,0-7.968,0h7.968c7.722-0.63,20.256-3.217,34.032-12.333
	c22.667-15,34-37,36.333-40.667s28.667-45,34-48.333c5.963-6.294,10.614-8.636,19.833-8.992c-0.057-0.002-0.11-0.006-0.167-0.008
	h0.333c-0.057,0.002-0.11,0.006-0.167,0.008c9.219,0.355,13.87,2.697,19.833,8.992c5.333,3.333,31.667,44.667,34,48.333
	s13.667,25.667,36.333,40.667C236.109-161.218,248.644-158.631,256.365-158.001h5.552v-118.167H-2.417v124.334h264.333v-6.004
	C260.565-157.797,258.683-157.812,256.365-158.001z"/>
<path fill="#F7A5A0" d="M177.333,57.666v68.333l87,0.334v-2.334c0,0-19.333,2.667-42-12.333s-34-37.001-36.333-40.667
	c-0.799-1.256-4.412-6.927-9.032-13.977"/>
<g>
	<g>
		<g>
			<g>
				
					<line fill="none" stroke="#947B7F" stroke-width="0.2115" stroke-miterlimit="10" x1="264.303" y1="124.633" x2="264.156" y2="123.391"/>
				<polyline fill="none" stroke="#947B7F" stroke-width="0.2115" stroke-miterlimit="10" points="238.793,120.709 239.007,120.121 
					239.22,119.533 				"/>
				<path fill="none" stroke="#947B7F" stroke-width="0.2115" stroke-miterlimit="10" d="M264.229,124.012
					c-4.271,0.398-8.582,0.055-12.807-0.621c-4.229-0.697-8.388-1.807-12.416-3.27"/>
			</g>
			<g>
				
					<line fill="none" stroke="#947B7F" stroke-width="0.2115" stroke-miterlimit="10" x1="238.595" y1="120.637" x2="239.025" y2="119.462"/>
				<polyline fill="none" stroke="#947B7F" stroke-width="0.2115" stroke-miterlimit="10" points="216.117,107.966 216.5,107.473 
					216.884,106.979 				"/>
				<path fill="none" stroke="#947B7F" stroke-width="0.2115" stroke-miterlimit="10" d="M238.81,120.049
					c-8.06-2.939-15.551-7.313-22.31-12.576"/>
			</g>
			<g>
				
					<line fill="none" stroke="#947B7F" stroke-width="0.2115" stroke-miterlimit="10" x1="215.95" y1="107.838" x2="216.719" y2="106.853"/>
				<polyline fill="none" stroke="#947B7F" stroke-width="0.2115" stroke-miterlimit="10" points="197.704,89.594 198.193,89.204 
					198.683,88.815 				"/>
				<path fill="none" stroke="#947B7F" stroke-width="0.2115" stroke-miterlimit="10" d="M216.335,107.345
					c-6.757-5.278-12.807-11.435-18.142-18.141"/>
			</g>
			<g>
				
					<line fill="none" stroke="#947B7F" stroke-width="0.2115" stroke-miterlimit="10" x1="197.574" y1="89.429" x2="198.553" y2="88.652"/>
				<polyline fill="none" stroke="#947B7F" stroke-width="0.2115" stroke-miterlimit="10" points="183.324,67.974 183.851,67.636 
					184.376,67.299 				"/>
				<path fill="none" stroke="#947B7F" stroke-width="0.2115" stroke-miterlimit="10" d="M198.063,89.04
					c-2.664-3.357-5.148-6.856-7.462-10.463c-2.332-3.598-4.364-7.378-6.75-10.941"/>
			</g>
			<g>
				
					<line fill="none" stroke="#947B7F" stroke-width="0.2115" stroke-miterlimit="10" x1="183.211" y1="67.798" x2="184.264" y2="67.122"/>
				<polyline fill="none" stroke="#947B7F" stroke-width="0.2115" stroke-miterlimit="10" points="169.106,46.314 169.625,45.965 
					170.143,45.615 				"/>
				<path fill="none" stroke="#947B7F" stroke-width="0.2115" stroke-miterlimit="10" d="M183.737,67.46
					c-4.633-7.212-9.322-14.387-14.113-21.495"/>
			</g>
			<g>
				
					<line fill="none" stroke="#947B7F" stroke-width="0.2115" stroke-miterlimit="10" x1="168.989" y1="46.141" x2="170.026" y2="45.441"/>
				<polyline fill="none" stroke="#947B7F" stroke-width="0.2115" stroke-miterlimit="10" points="153.943,25.4 154.413,24.988 
					154.883,24.576 				"/>
				<path fill="none" stroke="#947B7F" stroke-width="0.2115" stroke-miterlimit="10" d="M169.507,45.791
					c-2.398-3.552-4.822-7.087-7.304-10.58c-2.496-3.482-4.996-6.972-7.791-10.223"/>
			</g>
			<g>
				
					<line fill="none" stroke="#947B7F" stroke-width="0.2115" stroke-miterlimit="10" x1="153.807" y1="25.246" x2="154.742" y2="24.417"/>
				<polyline fill="none" stroke="#947B7F" stroke-width="0.2115" stroke-miterlimit="10" points="132.081,14.295 132.104,13.671 
					132.128,13.046 				"/>
				<path fill="none" stroke="#947B7F" stroke-width="0.2115" stroke-miterlimit="10" d="M154.274,24.831
					c-0.715-0.793-1.441-1.598-2.32-2.212c-0.738-0.777-1.495-1.536-2.283-2.263c-1.573-1.452-3.277-2.778-5.161-3.805
					c-3.775-2.1-8.148-2.73-12.406-2.881"/>
			</g>
			<g>
				
					<line fill="none" stroke="#947B7F" stroke-width="0.2115" stroke-miterlimit="10" x1="132.001" y1="13.041" x2="132.001" y2="14.291"/>
				<polyline fill="none" stroke="#947B7F" stroke-width="0.2115" stroke-miterlimit="10" points="132.332,13.041 132.332,13.666 
					132.332,14.291 				"/>
				
					<line fill="none" stroke="#947B7F" stroke-width="0.2115" stroke-miterlimit="10" x1="132.001" y1="13.666" x2="132.332" y2="13.666"/>
			</g>
			<g>
				
					<line fill="none" stroke="#947B7F" stroke-width="0.2115" stroke-miterlimit="10" x1="132.252" y1="14.295" x2="132.206" y2="13.046"/>
				<polyline fill="none" stroke="#947B7F" stroke-width="0.2115" stroke-miterlimit="10" points="110.527,25.246 110.059,24.831 
					109.591,24.417 				"/>
				<path fill="none" stroke="#947B7F" stroke-width="0.2115" stroke-miterlimit="10" d="M132.229,13.671
					c-4.258,0.15-8.631,0.781-12.406,2.881c-1.884,1.026-3.588,2.353-5.161,3.805c-0.788,0.727-1.545,1.485-2.283,2.263
					c-0.878,0.614-1.605,1.419-2.32,2.212"/>
			</g>
			<g>
				
					<line fill="none" stroke="#947B7F" stroke-width="0.2115" stroke-miterlimit="10" x1="110.391" y1="25.4" x2="109.451" y2="24.576"/>
				<polyline fill="none" stroke="#947B7F" stroke-width="0.2115" stroke-miterlimit="10" points="95.344,46.141 94.826,45.791 
					94.308,45.441 				"/>
				<path fill="none" stroke="#947B7F" stroke-width="0.2115" stroke-miterlimit="10" d="M109.92,24.988
					c-2.795,3.251-5.295,6.74-7.791,10.223c-2.482,3.493-4.906,7.028-7.304,10.58"/>
			</g>
			<g>
				
					<line fill="none" stroke="#947B7F" stroke-width="0.2115" stroke-miterlimit="10" x1="95.227" y1="46.314" x2="94.19" y2="45.615"/>
				<polyline fill="none" stroke="#947B7F" stroke-width="0.2115" stroke-miterlimit="10" points="81.122,67.798 80.596,67.46 
					80.07,67.122 				"/>
				<path fill="none" stroke="#947B7F" stroke-width="0.2115" stroke-miterlimit="10" d="M94.709,45.965
					c-4.791,7.108-9.48,14.283-14.113,21.495"/>
			</g>
			<g>
				
					<line fill="none" stroke="#947B7F" stroke-width="0.2115" stroke-miterlimit="10" x1="81.009" y1="67.974" x2="79.957" y2="67.299"/>
				<polyline fill="none" stroke="#947B7F" stroke-width="0.2115" stroke-miterlimit="10" points="66.76,89.429 66.27,89.04 
					65.78,88.652 				"/>
				<path fill="none" stroke="#947B7F" stroke-width="0.2115" stroke-miterlimit="10" d="M80.483,67.636
					c-2.386,3.563-4.418,7.344-6.75,10.941c-2.314,3.606-4.799,7.105-7.462,10.463"/>
			</g>
			<g>
				
					<line fill="none" stroke="#947B7F" stroke-width="0.2115" stroke-miterlimit="10" x1="66.629" y1="89.594" x2="65.651" y2="88.815"/>
				<polyline fill="none" stroke="#947B7F" stroke-width="0.2115" stroke-miterlimit="10" points="48.383,107.838 47.999,107.345 
					47.614,106.853 				"/>
				<path fill="none" stroke="#947B7F" stroke-width="0.2115" stroke-miterlimit="10" d="M66.14,89.204
					c-5.335,6.706-11.384,12.862-18.141,18.141"/>
			</g>
			<g>
				
					<line fill="none" stroke="#947B7F" stroke-width="0.2115" stroke-miterlimit="10" x1="48.217" y1="107.966" x2="47.449" y2="106.979"/>
				<polyline fill="none" stroke="#947B7F" stroke-width="0.2115" stroke-miterlimit="10" points="25.738,120.637 25.523,120.049 
					25.309,119.462 				"/>
				<path fill="none" stroke="#947B7F" stroke-width="0.2115" stroke-miterlimit="10" d="M47.833,107.473
					c-6.758,5.263-14.25,9.637-22.31,12.576"/>
			</g>
			<g>
				
					<line fill="none" stroke="#947B7F" stroke-width="0.2115" stroke-miterlimit="10" x1="25.54" y1="120.709" x2="25.113" y2="119.533"/>
				<polyline fill="none" stroke="#947B7F" stroke-width="0.2115" stroke-miterlimit="10" points="0.031,124.633 0.104,124.012 
					0.177,123.391 				"/>
				<path fill="none" stroke="#947B7F" stroke-width="0.2115" stroke-miterlimit="10" d="M25.327,120.121
					c-4.027,1.463-8.187,2.572-12.416,3.27c-4.226,0.676-8.536,1.02-12.807,0.621"/>
			</g>
		</g>
	</g>
</g>
<g>
	<g>
		<line fill="none" stroke="#CBCCCE" stroke-miterlimit="10" x1="132.167" y1="2.332" x2="132.167" y2="2.832"/>
		
			<line fill="none" stroke="#CBCCCE" stroke-miterlimit="10" stroke-dasharray="0.9906,1.9812" x1="132.167" y1="4.813" x2="132.167" y2="122.692"/>
		<line fill="none" stroke="#CBCCCE" stroke-miterlimit="10" x1="132.167" y1="123.683" x2="132.167" y2="124.183"/>
	</g>
</g>
</svg>
